<svg width="960" height="640" viewBox="0 0 960 640" fill="none" xmlns="http://www.w3.org/2000/svg">
  <defs>
    <linearGradient id="bg" x1="0" y1="0" x2="960" y2="640" gradientUnits="userSpaceOnUse">
      <stop stop-color="#A855F7" />
      <stop offset="0.45" stop-color="#6366F1" />
      <stop offset="1" stop-color="#0EA5E9" />
    </linearGradient>
    <linearGradient id="screen" x1="0" y1="0" x2="1" y2="1">
      <stop stop-color="#1F2937" />
      <stop offset="1" stop-color="#111827" />
    </linearGradient>
  </defs>
  <rect width="960" height="640" rx="32" fill="url(#bg)" />
  <rect x="90" y="120" width="520" height="320" rx="24" fill="url(#screen)" />
  <rect x="120" y="150" width="300" height="22" rx="11" fill="#F472B6" />
  <rect x="120" y="190" width="220" height="16" rx="8" fill="#E879F9" />
  <rect x="120" y="225" width="360" height="14" rx="7" fill="#C084FC" />
  <rect x="120" y="260" width="320" height="14" rx="7" fill="#818CF8" />
  <rect x="120" y="295" width="250" height="14" rx="7" fill="#60A5FA" />
  <rect x="120" y="330" width="180" height="14" rx="7" fill="#38BDF8" />
  <circle cx="730" cy="240" r="110" fill="#0F172A" opacity="0.35" />
  <circle cx="720" cy="230" r="80" fill="#1E1B4B" opacity="0.5" />
  <path d="M670 300C700 250 760 220 820 240" stroke="#F472B6" stroke-width="12" stroke-linecap="round" />
  <rect x="120" y="470" width="270" height="90" rx="18" fill="#0F172A" opacity="0.6" />
  <rect x="415" y="470" width="190" height="90" rx="18" fill="#111827" opacity="0.55" />
  <rect x="630" y="470" width="200" height="90" rx="18" fill="#1F2937" opacity="0.5" />
</svg>
